<?xml version="1.0" encoding="UTF-8"?>
<svg width="512px" height="512px" viewBox="0 0 512 512" version="1.1" xmlns="http://www.w3.org/2000/svg" xmlns:xlink="http://www.w3.org/1999/xlink">
    <title>favicon</title>
    <g id="favicon" stroke="none" stroke-width="1" fill="none" fill-rule="evenodd">
        <path d="M-1.13686838e-13,64 L64,0 L448,0 L512,64 L512,449 L449,512 L64,512 L0,448 L-1.13686838e-13,64 Z" id="background" fill="#000000"></path>
        <path d="M262.636374,432.363661 C327.000015,432.363661 359.181835,412.181842 395.181838,354.90911 L343.363652,323.272744 C316.090923,364.181838 301.363649,374.545475 262.636374,374.545475 C197.727278,374.545475 179.727277,347.272746 179.727277,256.181831 C179.727277,165.090915 198.272733,137.818186 264.818192,137.818186 C304.636377,137.818186 317.181832,147.090914 342.818198,188 L395.181838,156.909096 C360.272744,99.636365 328.636379,80 264.818192,80 C154.090912,80 117,130.181822 117,256.181831 C117,382.18184 153.545457,432.363661 262.636374,432.363661 Z" id="logo" fill="#FFFFFF" fill-rule="nonzero"></path>
    </g>
</svg>